<mxfile host="app.diagrams.net" modified="2022-02-12T07:32:42.587Z" agent="5.0 (Macintosh; Intel Mac OS X 10_15_7) AppleWebKit/537.36 (KHTML, like Gecko) Chrome/97.0.4692.71 Safari/537.36" etag="m76pgLC4WfoJuRG00wgn" version="16.5.6" type="github">
  <diagram id="9x88lKOaCOWoQ_JCTb7n" name="Page-1">
    <mxGraphModel dx="2066" dy="1053" grid="1" gridSize="10" guides="1" tooltips="1" connect="1" arrows="1" fold="1" page="1" pageScale="1" pageWidth="827" pageHeight="1169" math="0" shadow="0">
      <root>
        <mxCell id="0" />
        <mxCell id="1" parent="0" />
        <mxCell id="eAR6UejKNzjHJCbyOgQb-1" value="" style="ellipse;whiteSpace=wrap;html=1;strokeWidth=2;strokeColor=#d79b00;fillColor=#FFFFFF;snapToPoint=0;perimeter=lifelinePerimeter;" vertex="1" parent="1">
          <mxGeometry x="70" y="130" width="684" height="500" as="geometry" />
        </mxCell>
        <mxCell id="eAR6UejKNzjHJCbyOgQb-2" value="" style="endArrow=none;dashed=1;html=1;strokeWidth=2;exitX=0.056;exitY=0.744;exitDx=0;exitDy=0;exitPerimeter=0;curved=1;entryX=0.482;entryY=0;entryDx=0;entryDy=0;entryPerimeter=0;fillColor=#ffe6cc;strokeColor=#d79b00;" edge="1" parent="1" source="eAR6UejKNzjHJCbyOgQb-1" target="eAR6UejKNzjHJCbyOgQb-1">
          <mxGeometry width="50" height="50" relative="1" as="geometry">
            <mxPoint x="390" y="450" as="sourcePoint" />
            <mxPoint x="440" y="400" as="targetPoint" />
            <Array as="points">
              <mxPoint x="550" y="420" />
            </Array>
          </mxGeometry>
        </mxCell>
        <mxCell id="eAR6UejKNzjHJCbyOgQb-3" value="&lt;font style=&quot;font-size: 17px&quot;&gt;配置域（核心子域）&lt;/font&gt;" style="text;html=1;strokeColor=none;fillColor=none;align=center;verticalAlign=middle;whiteSpace=wrap;rounded=0;" vertex="1" parent="1">
          <mxGeometry x="160" y="240" width="190" height="60" as="geometry" />
        </mxCell>
        <mxCell id="eAR6UejKNzjHJCbyOgQb-4" value="配置上下文" style="ellipse;whiteSpace=wrap;html=1;strokeWidth=1;fillColor=#FFFFFF;" vertex="1" parent="1">
          <mxGeometry x="160" y="320" width="170" height="80" as="geometry" />
        </mxCell>
        <mxCell id="eAR6UejKNzjHJCbyOgQb-5" value="" style="endArrow=none;dashed=1;html=1;strokeWidth=2;entryX=1.003;entryY=0.536;entryDx=0;entryDy=0;entryPerimeter=0;curved=1;fillColor=#ffe6cc;strokeColor=#d79b00;" edge="1" parent="1" target="eAR6UejKNzjHJCbyOgQb-1">
          <mxGeometry width="50" height="50" relative="1" as="geometry">
            <mxPoint x="390" y="380" as="sourcePoint" />
            <mxPoint x="440" y="370" as="targetPoint" />
            <Array as="points">
              <mxPoint x="570" y="490" />
            </Array>
          </mxGeometry>
        </mxCell>
        <mxCell id="eAR6UejKNzjHJCbyOgQb-6" value="&lt;font style=&quot;font-size: 17px&quot;&gt;订单域（支撑子域）&lt;/font&gt;" style="text;html=1;strokeColor=none;fillColor=none;align=center;verticalAlign=middle;whiteSpace=wrap;rounded=0;" vertex="1" parent="1">
          <mxGeometry x="340" y="460" width="190" height="60" as="geometry" />
        </mxCell>
        <mxCell id="eAR6UejKNzjHJCbyOgQb-7" value="订单上下文" style="ellipse;whiteSpace=wrap;html=1;strokeWidth=1;fillColor=#FFFFFF;" vertex="1" parent="1">
          <mxGeometry x="340" y="520" width="170" height="80" as="geometry" />
        </mxCell>
        <mxCell id="eAR6UejKNzjHJCbyOgQb-8" value="&lt;font style=&quot;font-size: 17px&quot;&gt;解约域（支撑子域）&lt;/font&gt;" style="text;html=1;strokeColor=none;fillColor=none;align=center;verticalAlign=middle;whiteSpace=wrap;rounded=0;" vertex="1" parent="1">
          <mxGeometry x="470" y="220" width="190" height="60" as="geometry" />
        </mxCell>
        <mxCell id="eAR6UejKNzjHJCbyOgQb-9" value="解约单上下文" style="ellipse;whiteSpace=wrap;html=1;strokeWidth=1;fillColor=#FFFFFF;" vertex="1" parent="1">
          <mxGeometry x="480" y="290" width="170" height="80" as="geometry" />
        </mxCell>
        <mxCell id="eAR6UejKNzjHJCbyOgQb-10" value="配置上下文" style="ellipse;whiteSpace=wrap;html=1;strokeWidth=1;fillColor=#fff2cc;gradientColor=#ffd966;strokeColor=#d6b656;" vertex="1" parent="1">
          <mxGeometry x="300" y="760" width="120" height="80" as="geometry" />
        </mxCell>
        <mxCell id="eAR6UejKNzjHJCbyOgQb-11" value="订单上下文" style="ellipse;whiteSpace=wrap;html=1;strokeWidth=1;fillColor=#FFFFFF;" vertex="1" parent="1">
          <mxGeometry x="560" y="760" width="120" height="80" as="geometry" />
        </mxCell>
        <mxCell id="eAR6UejKNzjHJCbyOgQb-12" value="" style="endArrow=none;html=1;entryX=0;entryY=0.5;entryDx=0;entryDy=0;exitX=1;exitY=0.5;exitDx=0;exitDy=0;rounded=0;strokeWidth=2;" edge="1" parent="1" source="eAR6UejKNzjHJCbyOgQb-10" target="eAR6UejKNzjHJCbyOgQb-11">
          <mxGeometry width="50" height="50" relative="1" as="geometry">
            <mxPoint x="420" y="730" as="sourcePoint" />
            <mxPoint x="470" y="680" as="targetPoint" />
          </mxGeometry>
        </mxCell>
        <mxCell id="eAR6UejKNzjHJCbyOgQb-13" value="&lt;font color=&quot;#0000ff&quot;&gt;D&lt;/font&gt;" style="text;html=1;strokeColor=none;fillColor=none;align=center;verticalAlign=middle;whiteSpace=wrap;rounded=0;" vertex="1" parent="1">
          <mxGeometry x="420" y="780" width="40" height="20" as="geometry" />
        </mxCell>
        <mxCell id="eAR6UejKNzjHJCbyOgQb-14" value="&lt;font color=&quot;#0000ff&quot;&gt;U&lt;/font&gt;" style="text;html=1;strokeColor=none;fillColor=none;align=center;verticalAlign=middle;whiteSpace=wrap;rounded=0;" vertex="1" parent="1">
          <mxGeometry x="520" y="780" width="40" height="20" as="geometry" />
        </mxCell>
        <mxCell id="eAR6UejKNzjHJCbyOgQb-15" value="客服上下文" style="ellipse;whiteSpace=wrap;html=1;strokeWidth=1;fillColor=#FFFFFF;dashed=1;" vertex="1" parent="1">
          <mxGeometry x="60" y="760" width="120" height="80" as="geometry" />
        </mxCell>
        <mxCell id="eAR6UejKNzjHJCbyOgQb-16" value="" style="endArrow=none;html=1;entryX=0;entryY=0.5;entryDx=0;entryDy=0;exitX=1;exitY=0.5;exitDx=0;exitDy=0;rounded=0;strokeWidth=2;" edge="1" parent="1" source="eAR6UejKNzjHJCbyOgQb-15" target="eAR6UejKNzjHJCbyOgQb-10">
          <mxGeometry width="50" height="50" relative="1" as="geometry">
            <mxPoint x="200" y="900" as="sourcePoint" />
            <mxPoint x="340" y="900" as="targetPoint" />
          </mxGeometry>
        </mxCell>
        <mxCell id="eAR6UejKNzjHJCbyOgQb-17" value="&lt;font color=&quot;#0000ff&quot;&gt;D&lt;/font&gt;" style="text;html=1;strokeColor=none;fillColor=none;align=center;verticalAlign=middle;whiteSpace=wrap;rounded=0;" vertex="1" parent="1">
          <mxGeometry x="180" y="780" width="40" height="20" as="geometry" />
        </mxCell>
        <mxCell id="eAR6UejKNzjHJCbyOgQb-18" value="&lt;font color=&quot;#0000ff&quot;&gt;U&lt;/font&gt;" style="text;html=1;strokeColor=none;fillColor=none;align=center;verticalAlign=middle;whiteSpace=wrap;rounded=0;" vertex="1" parent="1">
          <mxGeometry x="260" y="780" width="40" height="20" as="geometry" />
        </mxCell>
        <mxCell id="eAR6UejKNzjHJCbyOgQb-19" value="PL" style="rounded=0;whiteSpace=wrap;html=1;strokeWidth=1;fillColor=#FFFF33;" vertex="1" parent="1">
          <mxGeometry x="540" y="810" width="50" height="30" as="geometry" />
        </mxCell>
        <mxCell id="eAR6UejKNzjHJCbyOgQb-20" value="PS" style="rounded=0;whiteSpace=wrap;html=1;strokeWidth=1;fillColor=#FFFF33;" vertex="1" parent="1">
          <mxGeometry x="880" y="780" width="50" height="30" as="geometry" />
        </mxCell>
        <mxCell id="eAR6UejKNzjHJCbyOgQb-21" value="PL" style="rounded=0;whiteSpace=wrap;html=1;strokeWidth=1;fillColor=#FFFF33;" vertex="1" parent="1">
          <mxGeometry x="880" y="830" width="50" height="30" as="geometry" />
        </mxCell>
        <mxCell id="eAR6UejKNzjHJCbyOgQb-22" value="CF" style="rounded=0;whiteSpace=wrap;html=1;strokeWidth=1;fillColor=#FFFF33;" vertex="1" parent="1">
          <mxGeometry x="880" y="880" width="50" height="30" as="geometry" />
        </mxCell>
        <mxCell id="eAR6UejKNzjHJCbyOgQb-23" value="CF" style="rounded=0;whiteSpace=wrap;html=1;strokeWidth=1;fillColor=#FFFF33;" vertex="1" parent="1">
          <mxGeometry x="160" y="810" width="50" height="30" as="geometry" />
        </mxCell>
        <mxCell id="eAR6UejKNzjHJCbyOgQb-24" value="PL" style="rounded=0;whiteSpace=wrap;html=1;strokeWidth=1;fillColor=#FFFF33;" vertex="1" parent="1">
          <mxGeometry x="270" y="810" width="50" height="30" as="geometry" />
        </mxCell>
        <mxCell id="eAR6UejKNzjHJCbyOgQb-25" value="CF" style="rounded=0;whiteSpace=wrap;html=1;strokeWidth=1;fillColor=#FFFF33;" vertex="1" parent="1">
          <mxGeometry x="389" y="810" width="50" height="30" as="geometry" />
        </mxCell>
        <mxCell id="eAR6UejKNzjHJCbyOgQb-26" value="解约单上下文" style="ellipse;whiteSpace=wrap;html=1;strokeWidth=1;fillColor=#FFFFFF;" vertex="1" parent="1">
          <mxGeometry x="440" y="950" width="120" height="80" as="geometry" />
        </mxCell>
        <mxCell id="eAR6UejKNzjHJCbyOgQb-27" value="" style="endArrow=none;html=1;entryX=0;entryY=0;entryDx=0;entryDy=0;exitX=0.5;exitY=1;exitDx=0;exitDy=0;rounded=0;strokeWidth=2;" edge="1" parent="1" source="eAR6UejKNzjHJCbyOgQb-10" target="eAR6UejKNzjHJCbyOgQb-26">
          <mxGeometry width="50" height="50" relative="1" as="geometry">
            <mxPoint x="430" y="810" as="sourcePoint" />
            <mxPoint x="570" y="810" as="targetPoint" />
          </mxGeometry>
        </mxCell>
        <mxCell id="eAR6UejKNzjHJCbyOgQb-28" value="&lt;font color=&quot;#0000ff&quot;&gt;D&lt;/font&gt;" style="text;html=1;strokeColor=none;fillColor=none;align=center;verticalAlign=middle;whiteSpace=wrap;rounded=0;" vertex="1" parent="1">
          <mxGeometry x="374" y="850" width="40" height="20" as="geometry" />
        </mxCell>
        <mxCell id="eAR6UejKNzjHJCbyOgQb-29" value="&lt;font color=&quot;#0000ff&quot;&gt;U&lt;/font&gt;" style="text;html=1;strokeColor=none;fillColor=none;align=center;verticalAlign=middle;whiteSpace=wrap;rounded=0;" vertex="1" parent="1">
          <mxGeometry x="440" y="930" width="40" height="20" as="geometry" />
        </mxCell>
        <mxCell id="eAR6UejKNzjHJCbyOgQb-30" value="CF" style="rounded=0;whiteSpace=wrap;html=1;strokeWidth=1;fillColor=#FFFF33;" vertex="1" parent="1">
          <mxGeometry x="320" y="830" width="50" height="30" as="geometry" />
        </mxCell>
        <mxCell id="eAR6UejKNzjHJCbyOgQb-31" value="PL" style="rounded=0;whiteSpace=wrap;html=1;strokeWidth=1;fillColor=#FFFF33;" vertex="1" parent="1">
          <mxGeometry x="400" y="975" width="50" height="30" as="geometry" />
        </mxCell>
        <mxCell id="eAR6UejKNzjHJCbyOgQb-32" value="" style="rounded=1;whiteSpace=wrap;html=1;strokeColor=#000000;strokeWidth=1;gradientColor=none;fillColor=#FFFFFF;glass=0;arcSize=50;imageHeight=24;imageWidth=10;direction=south;absoluteArcSize=0;comic=1;jiggle=1;treeMoving=0;treeFolding=0;deletable=0;cloneable=0;rotatable=1;resizeHeight=1;labelPadding=22;noLabel=1;imageAspect=1;autosize=1;" vertex="1" parent="1">
          <mxGeometry x="129" y="1229" width="502" height="336" as="geometry" />
        </mxCell>
      </root>
    </mxGraphModel>
  </diagram>
</mxfile>
